HIERARCHY
ROOT joint_Root
{
	OFFSET 0.0 0.0 0.0
	CHANNELS 6 Xposition Yposition Zposition Zrotation Xrotation Yrotation 
	JOINT Hips
	{
		OFFSET -0.726466 93.3139 -2.00062
		CHANNELS 6 Xposition Yposition Zposition Zrotation Xrotation Yrotation 
		JOINT Spine
		{
			OFFSET 15.7357 0.0 0.0
			CHANNELS 6 Xposition Yposition Zposition Zrotation Xrotation Yrotation 
			JOINT Chest
			{
				OFFSET 8.98455 -0.406207 0.0
				CHANNELS 6 Xposition Yposition Zposition Zrotation Xrotation Yrotation 
				JOINT Neck
				{
					OFFSET 16.3773 0.0 0.0
					CHANNELS 6 Xposition Yposition Zposition Zrotation Xrotation Yrotation 
					JOINT Head
					{
						OFFSET 6.45672 0.0 0.0
						CHANNELS 6 Xposition Yposition Zposition Zrotation Xrotation Yrotation 
						End Site
						{
							OFFSET 0.0 0.0 0.0
						}
					}
				}
				JOINT Shoulder_L
				{
					OFFSET 12.9942 -0.242716 4.98039
					CHANNELS 6 Xposition Yposition Zposition Zrotation Xrotation Yrotation 
					JOINT UpperArm_L
					{
						OFFSET 5.34809 0.0 0.0
						CHANNELS 6 Xposition Yposition Zposition Zrotation Xrotation Yrotation 
						JOINT LowerArm_L
						{
							OFFSET 24.3286 1.87007e-05 0.0
							CHANNELS 6 Xposition Yposition Zposition Zrotation Xrotation Yrotation 
							JOINT Hand_L
							{
								OFFSET 22.2916 0.0 0.0
								CHANNELS 6 Xposition Yposition Zposition Zrotation Xrotation Yrotation 
								End Site
								{
									OFFSET 0.0 0.0 0.0
								}
							}
						}
					}
				}
				JOINT Shoulder_R
				{
					OFFSET 12.9945 -0.242716 -4.98039
					CHANNELS 6 Xposition Yposition Zposition Zrotation Xrotation Yrotation 
					JOINT UpperArm_R
					{
						OFFSET -5.34813 0.0 0.0
						CHANNELS 6 Xposition Yposition Zposition Zrotation Xrotation Yrotation 
						JOINT LowerArm_R
						{
							OFFSET -24.3289 0.000322201 0.0
							CHANNELS 6 Xposition Yposition Zposition Zrotation Xrotation Yrotation 
							JOINT Hand_R
							{
								OFFSET -22.2915 -0.000108084 0.0
								CHANNELS 6 Xposition Yposition Zposition Zrotation Xrotation Yrotation 
								End Site
								{
									OFFSET 0.0 0.0 0.0
								}
							}
						}
					}
				}
			}
		}
		JOINT UpperLeg_L
		{
			OFFSET -2.19248 -6.46944 0.0
			CHANNELS 6 Xposition Yposition Zposition Zrotation Xrotation Yrotation 
			JOINT LowerLeg_L
			{
				OFFSET 39.0811 0.0 -1.23785e-05
				CHANNELS 6 Xposition Yposition Zposition Zrotation Xrotation Yrotation 
				JOINT Foot_L
				{
					OFFSET 40.9854 0.0 -1.26872e-05
					CHANNELS 6 Xposition Yposition Zposition Zrotation Xrotation Yrotation 
					JOINT Toes_L
					{
						OFFSET 11.7543 0.0 0.0
						CHANNELS 6 Xposition Yposition Zposition Zrotation Xrotation Yrotation 
						End Site
						{
							OFFSET 0.0 0.0 0.0
						}
					}
				}
			}
		}
		JOINT UpperLeg_R
		{
			OFFSET -2.19251 6.46944 0.0
			CHANNELS 6 Xposition Yposition Zposition Zrotation Xrotation Yrotation 
			JOINT LowerLeg_R
			{
				OFFSET -39.0811 -0.00228153 -0.0401928
				CHANNELS 6 Xposition Yposition Zposition Zrotation Xrotation Yrotation 
				JOINT Foot_R
				{
					OFFSET -40.9854 0.0 0.0
					CHANNELS 6 Xposition Yposition Zposition Zrotation Xrotation Yrotation 
					JOINT Toes_R
					{
						OFFSET -11.7543 0.0 0.0
						CHANNELS 6 Xposition Yposition Zposition Zrotation Xrotation Yrotation 
						End Site
						{
							OFFSET 0.0 0.0 0.0
						}
					}
				}
			}
		}
	}
}
MOTION
Frames:	5
Frame Time:	0.0333333
0.000000 0.000000 0.000000 0.000000 0.000000 -0.000000 -0.243495 92.619600 12.511900 -90.594500 3.266630 177.617000 15.735700 0.000005 -0.000001 123.864000 83.084900 -123.630000 8.984550 -0.406207 -0.000000 3.730680 7.688090 0.217922 16.377300 -0.000001 -0.000001 0.555010 -0.880333 -0.106642 6.456720 -0.000001 -0.000000 3.857360 -6.368010 -2.483210 12.994200 -0.242716 4.980390 -86.717200 -7.378740 -65.933800 5.348090 -0.000007 -0.000001 -72.506100 35.849300 16.911400 24.328600 0.000019 0.000005 1.872020 -0.258273 -97.861300 22.291600 -0.000001 0.000005 0.426789 5.617650 -12.458500 12.994500 -0.242716 -4.980390 90.309800 -0.976558 -72.393300 -5.348130 -0.000001 -0.000004 -59.876500 37.630600 -25.688800 -24.328900 0.000322 -0.000009 0.036380 -0.009269 -104.592000 -22.291500 -0.000108 -0.000004 10.894200 5.562690 -9.309800 -2.192480 -6.469440 -0.000000 176.253000 -0.043540 -25.959100 39.081100 -0.000007 -0.000012 0.018396 -0.027106 34.161300 40.985400 -0.000006 -0.000013 7.738720 -8.810810 -60.519700 11.754300 -0.000000 0.000003 -0.006106 -0.071803 -19.499100 -2.192510 6.469440 -0.000001 176.022000 12.006900 -171.491000 -39.081100 -0.002282 -0.040193 0.068610 -0.109536 30.804900 -40.985400 0.000008 0.000006 6.868780 10.965600 -39.184900 -11.754300 -0.000006 -0.000006 -0.143858 -0.542465 -39.477800
0.000000 0.000000 0.000000 0.000000 0.000000 -0.000000 0.268748 92.954100 3.407970 -86.657100 3.469820 177.708000 15.735700 0.000005 -0.000001 128.021000 82.975900 -126.757000 8.984550 -0.406207 -0.000000 3.239010 8.593280 2.283410 16.377300 -0.000001 -0.000001 0.117961 -0.503917 -0.567109 6.456720 -0.000001 -0.000000 3.940150 -6.369670 -2.366030 12.994200 -0.242716 4.980390 -85.916000 -9.194300 -65.921700 5.348090 -0.000007 -0.000001 -74.403500 33.760000 19.018000 24.328600 0.000019 0.000005 0.657354 -0.105426 -99.129400 22.291600 -0.000001 0.000005 1.742120 5.618180 -12.497000 12.994500 -0.242716 -4.980390 90.752400 -2.422780 -72.740300 -5.348130 -0.000001 -0.000004 -62.534600 38.795500 -23.831900 -24.328900 0.000322 -0.000009 0.504652 -0.117896 -103.173000 -22.291500 -0.000108 -0.000004 10.507800 5.556450 -9.013750 -2.192480 -6.469440 -0.000000 -178.839000 -0.993925 -21.501100 39.081100 -0.000007 -0.000012 0.007031 -0.024895 15.771600 40.985400 -0.000006 -0.000013 2.477460 -0.730244 -64.578100 11.754300 -0.000000 0.000003 -0.007213 -0.081489 -19.894400 -2.192510 6.469440 -0.000001 179.521000 9.968320 -169.391000 -39.081100 -0.002282 -0.040193 0.081621 -0.126439 31.776400 -40.985400 0.000008 0.000006 -0.080537 5.928920 -29.304700 -11.754300 -0.000006 -0.000006 -0.026429 -0.200604 -24.783400
0.000000 0.000000 0.000000 0.000000 0.000000 -0.000000 0.455912 92.234400 -5.656240 -85.583100 3.480840 177.448000 15.735700 0.000005 -0.000001 128.500000 83.157800 -127.124000 8.984550 -0.406207 -0.000000 2.871250 8.451640 2.540670 16.377300 -0.000001 -0.000001 -0.178726 -0.336010 -0.575747 6.456720 -0.000001 -0.000000 3.334080 -6.229470 -2.485770 12.994200 -0.242716 4.980390 -85.681000 -9.820660 -66.117000 5.348090 -0.000007 -0.000001 -75.112400 31.729400 19.716200 24.328600 0.000019 0.000005 0.009613 -0.001677 -100.413000 22.291600 -0.000001 0.000005 2.286760 5.618120 -12.491500 12.994500 -0.242716 -4.980390 90.823300 -2.700360 -73.038200 -5.348130 -0.000001 -0.000004 -63.813100 39.857700 -21.873200 -24.328900 0.000322 -0.000009 0.181346 -0.035415 -101.040000 -22.291500 -0.000108 -0.000004 10.908600 5.563020 -9.335030 -2.192480 -6.469440 -0.000000 -178.627000 -4.067610 -22.042000 39.081100 -0.000007 -0.000012 0.004250 -0.019932 12.038300 40.985400 -0.000006 -0.000013 -0.097738 3.308220 -69.223000 11.754300 -0.000000 0.000003 -0.008574 -0.092663 -20.350700 -2.192510 6.469440 -0.000001 -178.201000 6.835480 -170.028000 -39.081100 -0.002282 -0.040193 0.073089 -0.084460 39.575200 -40.985400 0.000008 0.000006 1.978070 -0.227733 -32.130700 -11.754300 -0.000006 -0.000006 -0.027149 -0.204088 -24.927600
0.000000 0.000000 0.000000 0.000000 0.000000 -0.000000 0.074953 90.820900 -14.382000 -88.368500 2.102550 178.246000 15.735700 0.000005 -0.000001 118.884000 83.297700 -118.560000 8.984550 -0.406207 -0.000000 3.973950 6.454830 0.422009 16.377300 -0.000001 -0.000001 -0.574618 -0.447366 -0.556762 6.456720 -0.000001 -0.000000 2.036680 -5.982080 -2.198780 12.994200 -0.242716 4.980390 -86.332000 -8.554900 -66.687600 5.348090 -0.000007 -0.000001 -73.971900 29.647600 18.026200 24.328600 0.000019 0.000005 -0.500731 0.097826 -101.049000 22.291600 -0.000001 0.000005 2.463700 5.619100 -12.556900 12.994500 -0.242716 -4.980390 90.424000 -1.398690 -73.133200 -5.348130 -0.000001 -0.000004 -64.000100 40.252300 -20.041700 -24.328900 0.000322 -0.000009 -0.386694 0.052434 -97.711700 -22.291500 -0.000108 -0.000004 10.850600 5.564320 -9.401270 -2.192480 -6.469440 -0.000000 176.579000 -4.409770 -26.867500 39.081100 -0.000007 -0.000012 0.191890 -0.435624 23.773500 40.985400 -0.000006 -0.000013 5.119850 -1.844270 -63.874200 11.754300 -0.000000 0.000003 -0.009761 -0.101856 -20.726500 -2.192510 6.469440 -0.000001 179.599000 6.149890 -173.002000 -39.081100 -0.002282 -0.040193 0.053428 -0.038544 52.477300 -40.985400 0.000008 0.000006 3.561030 -4.297670 -34.672000 -11.754300 -0.000006 -0.000006 -0.027650 -0.206484 -25.026900
0.000000 0.000000 0.000000 0.000000 0.000000 -0.000000 -0.496671 88.272600 -23.171800 -91.265000 0.879679 179.606000 15.735700 0.000005 -0.000001 108.044000 83.020200 -108.738000 8.984550 -0.406207 -0.000000 5.546090 4.327230 -1.597320 16.377300 -0.000001 -0.000001 -1.175380 -1.066980 -0.244829 6.456720 -0.000001 -0.000000 0.865612 -5.591760 -2.119170 12.994200 -0.242716 4.980390 -87.292200 -6.571610 -67.549200 5.348090 -0.000007 -0.000001 -71.934800 28.544100 14.268200 24.328600 0.000019 0.000005 -1.950530 0.388901 -101.267000 22.291600 -0.000001 0.000005 3.210290 5.630320 -13.354800 12.994500 -0.242716 -4.980390 90.031100 -0.100907 -72.775200 -5.348130 -0.000001 -0.000004 -65.233000 39.900500 -16.616800 -24.328900 0.000322 -0.000009 -0.116264 0.007932 -93.640900 -22.291500 -0.000108 -0.000004 10.980800 5.574520 -9.917870 -2.192480 -6.469440 -0.000000 173.672000 -2.609630 -28.957900 39.081100 -0.000007 -0.000012 0.111286 -0.141032 38.276000 40.985400 -0.000006 -0.000013 5.501300 -2.459180 -60.319300 11.754300 -0.000000 0.000003 -0.004085 -0.052332 -18.705600 -2.192510 6.469440 -0.000001 176.588000 6.310700 -177.880000 -39.081100 -0.002282 -0.040193 0.008496 -0.002119 68.442400 -40.985400 0.000008 0.000006 5.216860 -6.438290 -37.384600 -11.754300 -0.000006 -0.000006 -0.027082 -0.203764 -24.914200
